<svg height="482pt" viewBox="-15 0 482 482.60407" width="482pt" xmlns="http://www.w3.org/2000/svg"><path d="m268.941406 173.949219h25.609375c3.3125 0 6-2.6875 6-6 0-3.316407-2.6875-6-6-6h-25.609375c-3.316406 0-6 2.683593-6 6 0 3.3125 2.683594 6 6 6zm0 0"/><path d="m156.160156 173.949219h89.820313c3.316406 0 6-2.6875 6-6 0-3.316407-2.683594-6-6-6h-89.820313c-3.3125 0-6 2.683593-6 6 0 3.3125 2.6875 6 6 6zm0 0"/><path d="m94.542969 173.949219h38.199219c3.3125 0 6-2.6875 6-6 0-3.316407-2.6875-6-6-6h-38.199219c-3.316407 0-6 2.683593-6 6 0 3.3125 2.683593 6 6 6zm0 0"/><path d="m231.722656 214.8125h-106.386718c-3.316407 0-6 2.6875-6 6s2.683593 6 6 6h106.386718c3.3125 0 6-2.6875 6-6s-2.6875-6-6-6zm0 0"/><path d="m94.542969 226.8125h11.136719c3.3125 0 6-2.6875 6-6s-2.6875-6-6-6h-11.136719c-3.316407 0-6 2.6875-6 6s2.683593 6 6 6zm0 0"/><path d="m94.542969 282.972656h71.257812c3.316407 0 6-2.6875 6-6s-2.683593-6-6-6h-71.257812c-3.316407 0-6 2.6875-6 6s2.683593 6 6 6zm0 0"/><path d="m123.347656 322.875h-28.804687c-3.316407 0-6 2.6875-6 6 0 3.316406 2.683593 6 6 6h28.804687c3.3125 0 6-2.683594 6-6 0-3.3125-2.6875-6-6-6zm0 0"/><path d="m442.261719 132.910156c-7.777344-11.804687-23.644531-15.089844-35.464844-7.339844l-6.515625 4.28125h-.015625l-11.476563 7.550782v-88.261719c-.015624-14.136719-11.472656-25.59375-25.609374-25.609375h-131.363282c-6.847656-14.375-21.347656-23.53125-37.269531-23.53125-15.925781 0-30.425781 9.15625-37.273437 23.53125h-131.363282c-14.136718.015625-25.59375 11.472656-25.609375 25.609375v407.863281c.023438 14.132813 11.476563 25.582032 25.609375 25.601563h337.269532c14.132812-.015625 25.585937-11.46875 25.609374-25.601563v-245.601562l51.964844-34.144532c11.804688-7.777343 15.089844-23.640624 7.339844-35.464843zm-222.734375 175.34375-7.09375-10.800781 203.097656-133.449219 7.097656 10.800782zm111.785156 52.011719h-31.566406c-14.136719.015625-25.59375 11.46875-25.609375 25.605469v30.734375h-212.554688c-2.097656-.003907-3.796875-1.707031-3.800781-3.804688v-319.460937c.003906-2.101563 1.703125-3.800782 3.800781-3.808594h26.960938v16.472656c0 3.3125 2.683593 6 6 6h200.007812c3.3125 0 6-2.6875 6-6v-16.472656h26.957031c2.097657.003906 3.800782 1.707031 3.804688 3.808594v81.828125l-144.167969 94.726562c-.09375.0625-.179687.128907-.269531.199219-.054688.039062-.109375.078125-.164062.121094-.183594.144531-.359376.300781-.527344.464844l-.007813.007812c-.160156.164062-.3125.339844-.453125.523438-.035156.042968-.066406.085937-.101562.128906-.113282.152344-.21875.3125-.316406.476562-.019532.027344-.039063.050782-.058594.082032l-27.257813 46.972656-8.101562 5.320312c-2.769531 1.820313-3.539063 5.539063-1.71875 8.308594 1.820312 2.769531 5.539062 3.539062 8.308593 1.71875l8.101563-5.320312 53.929687-6.375c.03125 0 .0625-.011719.09375-.015626.097657-.015624.191407-.035156.289063-.054687.175781-.03125.347656-.066406.515625-.113281.101562-.027344.203125-.0625.300781-.101563.164063-.054687.324219-.113281.480469-.179687.097656-.042969.199219-.089844.292969-.136719.152343-.078125.300781-.160156.445312-.25.058594-.035156.117188-.058594.175781-.101563l110.210938-72.40625zm-8.242188 12-36.933593 36.933594v-23.328125c.007812-7.511719 6.097656-13.597656 13.609375-13.605469zm-115.609374-60.523437-33.777344 3.996093 17.074218-29.421875 8.351563 12.714844zm-1.617188-24.316407-7.09375-10.800781 187.386719-123.121094.011719-.007812 15.699218-10.316406 7.097656 10.800781zm157.335938-251.894531c7.511718.007812 13.597656 6.09375 13.609374 13.609375v96.144531l-33.476562 22v-73.945312c-.011719-8.726563-7.082031-15.796875-15.804688-15.808594h-26.957031v-18.585938c0-3.316406-2.6875-6-6-6h-58.710937v-11.648437c-.003906-1.929687-.140625-3.855469-.410156-5.765625zm-168.632813-23.527344c16.171875.015625 29.28125 13.125 29.296875 29.300782v17.640624c0 3.3125 2.6875 6 6 6h58.710938v35.058594h-188.011719v-35.058594h58.707031c3.3125 0 6-2.6875 6-6v-17.648437c.019531-16.171875 13.125-29.273437 29.296875-29.292969zm182.242187 445c-.015624 7.507813-6.101562 13.59375-13.609374 13.601563h-337.269532c-7.507812-.011719-13.59375-6.09375-13.609375-13.601563v-407.863281c.007813-7.511719 6.097657-13.601563 13.609375-13.609375h127.75c-.269531 1.910156-.40625 3.835938-.410156 5.765625v11.648437h-58.707031c-3.316407 0-6 2.683594-6 6v18.585938h-26.960938c-8.722656.015625-15.789062 7.082031-15.800781 15.808594v319.464844c.011719 8.71875 7.078125 15.789062 15.800781 15.800781h214.757813c.796875-.007813 1.589844-.066407 2.375-.175781.464844.113281.941406.171874 1.421875.175781 1.734375 0 3.382812-.753907 4.515625-2.058594 1.566406-.832031 2.996094-1.890625 4.25-3.144531l49.207031-49.199219c3.339844-3.324219 5.210937-7.847656 5.199219-12.5625v-120.363281l33.476562-22zm57.375-289.773437-1.507812.988281-20.777344-31.625 1.507813-.988281c6.28125-4.128907 14.71875-2.382813 18.84375 3.898437l5.832031 8.878906c4.117188 6.28125 2.371094 14.710938-3.898438 18.84375zm0 0"/></svg>