<?xml version="1.0" encoding="iso-8859-1"?>
<!-- Generator: Adobe Illustrator 19.0.0, SVG Export Plug-In . SVG Version: 6.00 Build 0)  -->
<svg version="1.1" id="Layer_1" xmlns="http://www.w3.org/2000/svg" xmlns:xlink="http://www.w3.org/1999/xlink" x="0px" y="0px"
	 viewBox="0 0 512 512" style="enable-background:new 0 0 512 512;" xml:space="preserve">
<path style="fill:#7194D8;" d="M438.484,226.848c0.23-3.118,0.35-6.267,0.35-9.442c0-69.938-56.694-126.633-126.632-126.633
	c-42.611,0-80.306,21.047-103.257,53.31c-7.12-1.605-14.516-2.479-22.12-2.479c-48.798,0-89.435,34.864-98.411,81.036
	c-45.896,9.193-80.479,49.71-80.479,98.313c0,55.38,44.894,100.274,100.274,100.274h295.58c55.38,0,100.274-44.895,100.274-100.274
	C504.065,277.768,476.765,240.967,438.484,226.848z"/>
<polygon style="fill:#FFFFFF;" points="293.454,361.112 293.464,252.506 330.22,252.507 261.507,183.791 192.791,252.506 
	229.552,252.506 229.552,361.112 "/>
<path d="M446.704,221.595c0.043-1.403,0.066-2.802,0.066-4.189c0-74.201-60.366-134.568-134.567-134.568
	c-41.744,0-81.222,19.522-106.635,52.478c-6.215-1.093-12.498-1.646-18.741-1.646c-49.931,0-93.308,34.323-105.078,82.343
	C34.078,227.997,0,271.315,0,320.953c0,59.667,48.543,108.21,108.21,108.21h295.58c59.667,0,108.21-48.543,108.21-108.21
	C512,277.799,485.992,238.593,446.704,221.595z M403.79,413.292H108.21c-50.916,0-92.339-41.423-92.339-92.339
	c0-43.858,31.165-81.931,74.102-90.53c3.155-0.632,5.617-3.108,6.232-6.267c8.405-43.234,46.517-74.614,90.622-74.614
	c6.793,0,13.648,0.769,20.375,2.284c3.123,0.706,6.357-0.535,8.211-3.141c22.26-31.292,58.443-49.975,96.791-49.975
	c65.449,0,118.696,53.247,118.696,118.697c0,2.919-0.11,5.9-0.329,8.859c-0.26,3.53,1.847,6.804,5.168,8.029
	c36.122,13.322,60.392,48.147,60.392,86.659C496.129,371.869,454.706,413.292,403.79,413.292z M267.118,178.18
	c-1.488-1.489-3.506-2.325-5.611-2.325c-2.104,0-4.122,0.836-5.611,2.325l-68.715,68.714c-2.27,2.27-2.949,5.683-1.72,8.648
	c1.228,2.966,4.121,4.899,7.331,4.899h28.826v100.671c0,4.382,3.553,7.935,7.935,7.935h63.901c4.382,0,7.934-3.552,7.935-7.934
	l0.01-100.672l28.82,0.001l0,0c3.209,0,6.103-1.933,7.331-4.899c1.228-2.965,0.549-6.378-1.72-8.648L267.118,178.18z
	 M293.465,244.57L293.465,244.57c-4.382,0-7.935,3.552-7.935,7.934l-0.01,100.672H237.49V252.506c0-4.382-3.553-7.935-7.935-7.935
	h-17.603l49.556-49.556l49.555,49.556H293.465z"/>
<g>
</g>
<g>
</g>
<g>
</g>
<g>
</g>
<g>
</g>
<g>
</g>
<g>
</g>
<g>
</g>
<g>
</g>
<g>
</g>
<g>
</g>
<g>
</g>
<g>
</g>
<g>
</g>
<g>
</g>
</svg>
